<svg width="17" height="9" viewBox="0 0 17 9" fill="none" xmlns="http://www.w3.org/2000/svg">
<path d="M8.5 8.06015C8.06212 8.06093 7.62837 7.9754 7.22357 7.80845C6.81876 7.64149 6.45083 7.39639 6.1408 7.08715L0.695994 1.64234C0.570501 1.51685 0.5 1.34664 0.5 1.16917C0.5 0.991692 0.570501 0.821487 0.695994 0.695994C0.821487 0.570501 0.991692 0.5 1.16917 0.5C1.34664 0.5 1.51685 0.570501 1.64234 0.695994L7.08715 6.14081C7.46202 6.51521 7.97018 6.72551 8.5 6.72551C9.02982 6.72551 9.53798 6.51521 9.91285 6.14081L15.3577 0.695994C15.4832 0.570501 15.6534 0.5 15.8308 0.5C16.0083 0.5 16.1785 0.570501 16.304 0.695994C16.4295 0.821487 16.5 0.991692 16.5 1.16917C16.5 1.34664 16.4295 1.51685 16.304 1.64234L10.8592 7.08715C10.5492 7.39639 10.1812 7.64149 9.77643 7.80845C9.37163 7.9754 8.93788 8.06093 8.5 8.06015Z" fill="#00838F"/>
</svg>
