<svg width="24" height="24" viewBox="0 0 24 24" fill="none" xmlns="http://www.w3.org/2000/svg">
<path d="M12.6415 16.8783C12.502 16.8777 12.3658 16.8358 12.2501 16.7578C12.1344 16.6798 12.0444 16.5692 11.9915 16.4401C11.9387 16.3109 11.9253 16.169 11.9531 16.0323C11.9808 15.8955 12.0486 15.7701 12.1476 15.6718L15.3932 12.4404C15.4593 12.3748 15.5118 12.2968 15.5476 12.2108C15.5835 12.1248 15.6019 12.0326 15.6019 11.9394C15.6019 11.8463 15.5835 11.7541 15.5476 11.6681C15.5118 11.5821 15.4593 11.5041 15.3932 11.4385L12.1476 8.20706C12.0815 8.14147 12.029 8.06343 11.9932 7.97745C11.9574 7.89148 11.9389 7.79926 11.9389 7.70611C11.9389 7.61297 11.9574 7.52075 11.9932 7.43477C12.029 7.3488 12.0815 7.27076 12.1476 7.20517C12.2798 7.07376 12.4587 7 12.6451 7C12.8314 7 13.0103 7.07376 13.1425 7.20517L16.381 10.4437C16.7774 10.8405 17 11.3785 17 11.9394C17 12.5004 16.7774 13.0383 16.381 13.4352L13.1425 16.6737C13.0765 16.7391 12.9984 16.7908 12.9124 16.826C12.8264 16.8611 12.7344 16.8789 12.6415 16.8783Z" fill="#00838F"/>
<path d="M7.7026 16.8783C7.56306 16.8777 7.42682 16.8358 7.31113 16.7578C7.19543 16.6798 7.10546 16.5692 7.05259 16.4401C6.99973 16.3109 6.98634 16.169 7.01413 16.0323C7.04192 15.8955 7.10963 15.7701 7.20871 15.6718L10.9411 11.9394L7.20871 8.20706C7.14258 8.14147 7.09009 8.06343 7.05427 7.97745C7.01845 7.89148 7.00001 7.79926 7.00001 7.70611C7.00001 7.61297 7.01845 7.52075 7.05427 7.43477C7.09009 7.3488 7.14258 7.27076 7.20871 7.20517C7.3409 7.07376 7.51973 7 7.70612 7C7.89252 7 8.07135 7.07376 8.20354 7.20517L12.4369 11.4385C12.503 11.5041 12.5555 11.5821 12.5913 11.6681C12.6271 11.7541 12.6456 11.8463 12.6456 11.9394C12.6456 12.0326 12.6271 12.1248 12.5913 12.2108C12.5555 12.2968 12.503 12.3748 12.4369 12.4404L8.20354 16.6737C8.13761 16.7391 8.05943 16.7908 7.97346 16.826C7.8875 16.8611 7.79545 16.8789 7.7026 16.8783Z" fill="#00838F"/>
</svg>
